<!-- Generated by IcoMoon.io -->
<svg version="1.1" xmlns="http://www.w3.org/2000/svg" width="32" height="32" viewBox="0 0 32 32">
<title>facebook</title>
<path fill="#fff" d="M29.538 13.538c0 0.005 0 0.011 0 0.017 0 3.733-1.516 7.112-3.965 9.555l-0 0c-2.444 2.45-5.823 3.966-9.556 3.966-0.006 0-0.012 0-0.018 0h0.001c-0.005 0-0.011 0-0.017 0-3.733 0-7.112-1.516-9.555-3.965l-0-0c-2.45-2.443-3.966-5.822-3.966-9.556 0-0.006 0-0.012 0-0.018v0.001c0-0.005 0-0.011 0-0.017 0-3.733 1.516-7.112 3.965-9.555l0-0c2.444-2.45 5.823-3.966 9.556-3.966 0.006 0 0.012 0 0.018 0h-0.001c0.005 0 0.011 0 0.017 0 3.733 0 7.112 1.516 9.555 3.965l0 0c2.45 2.444 3.966 5.823 3.966 9.556 0 0.006 0 0.012 0 0.018v-0.001z"></path>
<path fill="#afb1b8" d="M18.049 9.428h1.124v-1.957c-0.474-0.055-1.024-0.086-1.58-0.086-0.020 0-0.040 0-0.060 0h0.003c-1.62 0-2.73 1.019-2.73 2.892v1.723h-1.788v2.188h1.788v5.505h2.191v-5.504h1.716l0.272-2.188h-1.988v-1.508c0-0.632 0.17-1.065 1.052-1.065z"></path>
</svg>
