<svg width="52" height="52" fill="none" xmlns="http://www.w3.org/2000/svg"><g filter="url(#a)"><path d="M48 22a21.931 21.931 0 0 1-6.444 15.556A21.931 21.931 0 0 1 26 44a21.931 21.931 0 0 1-15.556-6.444A21.93 21.93 0 0 1 4 22a21.93 21.93 0 0 1 6.444-15.556A21.931 21.931 0 0 1 26 0a21.931 21.931 0 0 1 15.556 6.444A21.931 21.931 0 0 1 48 22Z" fill="#fff"/><g clip-path="url(#b)"><path d="M29.33 15.32h1.827v-3.18a23.59 23.59 0 0 0-2.66-.14c-2.633 0-4.436 1.656-4.436 4.7v2.8h-2.905v3.555h2.905V32h3.561v-8.944h2.788l.442-3.555h-3.23v-2.45c0-1.027.277-1.73 1.709-1.73Z" fill="#AFB1B8"/></g></g><defs><clipPath id="b"><path fill="#fff" transform="translate(16 12)" d="M0 0h20v20H0z"/></clipPath><filter id="a" x="0" y="0" width="52" height="52" filterUnits="userSpaceOnUse" color-interpolation-filters="sRGB"><feFlood flood-opacity="0" result="BackgroundImageFix"/><feColorMatrix in="SourceAlpha" values="0 0 0 0 0 0 0 0 0 0 0 0 0 0 0 0 0 0 127 0" result="hardAlpha"/><feOffset dy="4"/><feGaussianBlur stdDeviation="2"/><feComposite in2="hardAlpha" operator="out"/><feColorMatrix values="0 0 0 0 0 0 0 0 0 0 0 0 0 0 0 0 0 0 0.25 0"/><feBlend in2="BackgroundImageFix" result="effect1_dropShadow_1:480"/><feBlend in="SourceGraphic" in2="effect1_dropShadow_1:480" result="shape"/></filter></defs></svg>